Results
version=1
nRows=12
nColumns=24
inDegrees=yes
endheader
time	pelvis_tilt	pelvis_list	pelvis_rotation	pelvis_tx	pelvis_ty	pelvis_tz	hip_flexion_r	hip_adduction_r	hip_rotation_r	knee_angle_r	ankle_angle_r	subtalar_angle_r	mtp_angle_r	hip_flexion_l	hip_adduction_l	hip_rotation_l	knee_angle_l	ankle_angle_l	subtalar_angle_l	mtp_angle_l	lumbar_extension	lumbar_bending	lumbar_rotation
      1.50400000	     -9.65832245	      5.28357204	     -2.39932770	      0.38276808	      0.89179800	      0.26770199	     24.31735492	     -7.86703401	     -7.79139586	    -69.14497247	      6.36427578	      5.66205949	     10.22696654	     23.77780516	      7.73793918	     -5.86143696	    -22.45768985	      9.02182416	     -5.43856886	      5.42568316	      5.25599298	    -10.00230145	      6.04175683
      1.50816667	     -9.58744526	      5.13529076	     -2.22998340	      0.38766621	      0.89313870	      0.26736061	     24.84712078	     -7.70264764	     -7.93157237	    -68.64147724	      6.77315372	      5.56000142	     10.17599258	     23.08984211	      7.71751285	     -5.57196335	    -21.94800863	      9.02905809	     -5.42038381	      5.42259120	      5.13323497	     -9.85444132	      5.68984949
      1.51233333	     -9.50415746	      4.97824954	     -2.05071830	      0.39256059	      0.89447857	      0.26699707	     25.34504849	     -7.53908406	     -8.09017676	    -68.08012931	      7.14845215	      5.43825269	     10.12570558	     22.38809686	      7.68717870	     -5.27548555	    -21.43554804	      9.03980189	     -5.40071437	      5.41733770	      5.00101327	     -9.68641431	      5.35696774
      1.51650000	     -9.43388474	      4.81161308	     -1.85420723	      0.39741937	      0.89576584	      0.26662865	     25.84074455	     -7.36527889	     -8.25697213	    -67.46592169	      7.51705993	      5.27802596	     10.08968918	     21.71313682	      7.64312080	     -4.96258068	    -20.94372356	      9.03029005	     -5.34075296	      5.41274933	      4.85982498	     -9.52430658	      5.08585603
      1.52066667	     -9.31761897	      4.65144988	     -1.65771436	      0.40232420	      0.89711977	      0.26622862	     26.26417578	     -7.21519850	     -8.43717262	    -66.78619428	      7.79498400	      5.10980806	     10.02007222	     20.96090599	      7.61267270	     -4.62664590	    -20.39347505	      9.02927631	     -5.39284175	      5.40054692	      4.69783053	     -9.34850794	      4.62262567
      1.52483333	     -9.22261073	      4.48759901	     -1.44926901	      0.40719562	      0.89839872	      0.26581989	     26.69818298	     -7.06623137	     -8.62911149	    -66.06121676	      8.06984776	      4.90586027	      9.93767791	     20.24321706	      7.57209762	     -4.28324123	    -19.86161324	      9.01010065	     -5.41394729	      5.38499037	      4.55312849	     -9.17398791	      4.23108397
      1.52900000	     -9.11866670	      4.31562347	     -1.23485269	      0.41206436	      0.89966317	      0.26540482	     27.10310289	     -6.91049739	     -8.82401604	    -65.27812289	      8.30416823	      4.66969914	      9.85259029	     19.51727687	      7.51833449	     -3.93110906	    -19.33080322	      8.99686854	     -5.42761721	      5.36819237	      4.39334263	     -8.98946056	      3.85991055
      1.53316667	     -9.01847514	      4.12815139	     -0.98905998	      0.41691241	      0.90088590	      0.26497138	     27.48552480	     -6.75058595	     -9.05482908	    -64.43870238	      8.54566800	      4.39307465	      9.79252816	     18.81303739	      7.44377258	     -3.57200815	    -18.83240360	      8.95990600	     -5.38232386	      5.35663873	      4.22623751	     -8.79825504	      3.57102667
      1.53733333	     -8.91295176	      3.97779796	     -0.76571925	      0.42176610	      0.90207193	      0.26452900	     27.86488978	     -6.63038578	     -9.25023196	    -63.56908654	      8.69789163	      4.09731228	      9.62797208	     18.07244680	      7.41131489	     -3.17373852	    -18.25961832	      8.91454989	     -5.51289776	      5.32087893	      4.07774517	     -8.64099589	      2.99230611
      1.54150000	     -8.79660378	      3.78021357	     -0.52497337	      0.42661139	      0.90324897	      0.26410656	     28.19490092	     -6.45935853	     -9.47658288	    -62.61840760	      8.83431077	      3.76238980	      9.55499715	     17.35417842	      7.30869900	     -2.82849354	    -17.76359030	      8.91488453	     -5.46121626	      5.30749325	      3.90052544	     -8.43447623	      2.75841542
      1.54566667	     -8.68930513	      3.62665418	     -0.28721436	      0.43144815	      0.90434846	      0.26364598	     28.53905966	     -6.34514564	     -9.68572413	    -61.65510202	      8.92157456	      3.37878048	      9.35964371	     16.61892968	      7.26061514	     -2.42202588	    -17.19769229	      8.86445746	     -5.57697578	      5.26549373	      3.74046859	     -8.25810023	      2.19193586
      1.54983333	     -8.56002614	      3.44541490	     -0.05553289	      0.43629673	      0.90545075	      0.26322137	     28.83149967	     -6.19356182	     -9.89650746	    -60.62074341	      8.95245504	      2.96820984	      9.22621759	     15.87778336	      7.16196938	     -2.07912432	    -16.67283129	      8.88195909	     -5.57491916	      5.24010762	      3.55799730	     -8.04325581	      1.87169285
